<mxfile host="app.diagrams.net" agent="Mozilla/5.0 (Windows NT 10.0; Win64; x64) AppleWebKit/537.36 (KHTML, like Gecko) Chrome/131.0.0.0 Safari/537.36 Edg/131.0.0.0" version="25.0.1">
  <diagram name="Page-1" id="d66fe2ae-3e9f-cf2f-6d29-e24063ad5d60">
    <mxGraphModel dx="7420" dy="3810" grid="1" gridSize="10" guides="1" tooltips="1" connect="1" arrows="1" fold="1" page="1" pageScale="1" pageWidth="1100" pageHeight="850" background="none" math="0" shadow="0">
      <root>
        <mxCell id="0" />
        <mxCell id="1" parent="0" />
        <mxCell id="jQbY-VFzGhRPJN1Kly41-76" value="" style="rounded=0;whiteSpace=wrap;html=1;fillColor=none;dashed=1;strokeWidth=3;labelPosition=left;verticalLabelPosition=top;align=right;verticalAlign=bottom;strokeColor=#FF0000;" vertex="1" parent="1">
          <mxGeometry x="-1050" y="1070" width="880" height="540" as="geometry" />
        </mxCell>
        <mxCell id="jQbY-VFzGhRPJN1Kly41-2" value="" style="rounded=0;whiteSpace=wrap;html=1;fillColor=none;dashed=1;strokeColor=#0000FF;strokeWidth=2;" vertex="1" parent="1">
          <mxGeometry x="-1920" y="1107" width="580" height="390" as="geometry" />
        </mxCell>
        <mxCell id="jQbY-VFzGhRPJN1Kly41-14" value="" style="rounded=0;whiteSpace=wrap;html=1;fillColor=none;dashed=1;strokeWidth=3;strokeColor=#33FF33;" vertex="1" parent="1">
          <mxGeometry x="-2030" y="710" width="730" height="820" as="geometry" />
        </mxCell>
        <mxCell id="jQbY-VFzGhRPJN1Kly41-18" value="" style="rounded=0;whiteSpace=wrap;html=1;fillColor=none;dashed=1;strokeWidth=3;labelPosition=left;verticalLabelPosition=top;align=right;verticalAlign=bottom;strokeColor=#FF0000;" vertex="1" parent="1">
          <mxGeometry x="-2100" y="61" width="890" height="1551" as="geometry" />
        </mxCell>
        <mxCell id="5fc5e51f7ca293a3-122" value="&lt;font color=&quot;#33ff33&quot; style=&quot;font-size: 24px;&quot;&gt;&lt;b&gt;服务器集群&lt;/b&gt;&lt;/font&gt;" style="fontColor=#0066CC;verticalAlign=bottom;verticalLabelPosition=top;labelPosition=center;align=center;html=1;fillColor=none;strokeColor=#6881B3;gradientColor=none;gradientDirection=north;strokeWidth=2;shape=mxgraph.networks.server;rounded=1;shadow=0;comic=0;labelBackgroundColor=#ffffff;" parent="1" vertex="1">
          <mxGeometry x="-2000" y="759" width="90" height="89" as="geometry" />
        </mxCell>
        <mxCell id="5fc5e51f7ca293a3-123" style="edgeStyle=none;html=1;labelBackgroundColor=none;endArrow=none;strokeWidth=2;fontFamily=Verdana;fontSize=28;fontColor=#0066CC;rounded=0;strokeColor=#6881B3;" parent="1" source="5fc5e51f7ca293a3-130" target="5fc5e51f7ca293a3-131" edge="1">
          <mxGeometry relative="1" as="geometry" />
        </mxCell>
        <mxCell id="5fc5e51f7ca293a3-124" style="edgeStyle=none;html=1;labelBackgroundColor=none;endArrow=none;strokeWidth=2;fontFamily=Verdana;fontSize=28;fontColor=#0066CC;rounded=0;strokeColor=#6881B3;" parent="1" source="5fc5e51f7ca293a3-130" target="5fc5e51f7ca293a3-132" edge="1">
          <mxGeometry relative="1" as="geometry" />
        </mxCell>
        <mxCell id="8GZWlSdTsCK_pFLBvE7y-25" value="192.168.1.0/24&lt;div&gt;1G网络&lt;/div&gt;" style="edgeLabel;html=1;align=center;verticalAlign=middle;resizable=0;points=[];" parent="5fc5e51f7ca293a3-124" vertex="1" connectable="0">
          <mxGeometry x="-0.3667" relative="1" as="geometry">
            <mxPoint as="offset" />
          </mxGeometry>
        </mxCell>
        <mxCell id="5fc5e51f7ca293a3-125" style="edgeStyle=none;html=1;labelBackgroundColor=none;endArrow=none;strokeWidth=2;fontFamily=Verdana;fontSize=28;fontColor=#0066CC;rounded=0;strokeColor=#6881B3;" parent="1" source="5fc5e51f7ca293a3-130" target="5fc5e51f7ca293a3-133" edge="1">
          <mxGeometry relative="1" as="geometry" />
        </mxCell>
        <mxCell id="5fc5e51f7ca293a3-126" style="edgeStyle=none;html=1;labelBackgroundColor=none;endArrow=none;strokeWidth=2;fontFamily=Verdana;fontSize=28;fontColor=#0066CC;rounded=0;strokeColor=#6881B3;" parent="1" source="5fc5e51f7ca293a3-130" target="5fc5e51f7ca293a3-136" edge="1">
          <mxGeometry relative="1" as="geometry" />
        </mxCell>
        <mxCell id="5fc5e51f7ca293a3-127" style="edgeStyle=none;html=1;labelBackgroundColor=none;endArrow=none;strokeWidth=2;fontFamily=Verdana;fontSize=28;fontColor=#0066CC;rounded=0;strokeColor=#6881B3;" parent="1" source="5fc5e51f7ca293a3-130" target="5fc5e51f7ca293a3-135" edge="1">
          <mxGeometry relative="1" as="geometry" />
        </mxCell>
        <mxCell id="5fc5e51f7ca293a3-128" style="edgeStyle=none;html=1;labelBackgroundColor=none;endArrow=none;strokeWidth=2;fontFamily=Verdana;fontSize=28;fontColor=#0066CC;rounded=0;strokeColor=#6881B3;" parent="1" source="5fc5e51f7ca293a3-130" target="5fc5e51f7ca293a3-134" edge="1">
          <mxGeometry relative="1" as="geometry" />
        </mxCell>
        <mxCell id="5fc5e51f7ca293a3-129" style="edgeStyle=none;html=1;labelBackgroundColor=none;endArrow=none;strokeWidth=5;fontFamily=Verdana;fontSize=28;fontColor=#0066CC;rounded=0;strokeColor=#6881B3;exitX=0.5;exitY=1;exitDx=0;exitDy=0;exitPerimeter=0;entryX=0.5;entryY=0;entryDx=0;entryDy=0;entryPerimeter=0;" parent="1" source="8GZWlSdTsCK_pFLBvE7y-20" target="8GZWlSdTsCK_pFLBvE7y-41" edge="1">
          <mxGeometry relative="1" as="geometry">
            <mxPoint x="-1638" y="969.5" as="sourcePoint" />
            <mxPoint x="-1630" y="965.5" as="targetPoint" />
          </mxGeometry>
        </mxCell>
        <mxCell id="8GZWlSdTsCK_pFLBvE7y-26" value="10.10.0.0/16" style="edgeLabel;html=1;align=center;verticalAlign=middle;resizable=0;points=[];" parent="5fc5e51f7ca293a3-129" vertex="1" connectable="0">
          <mxGeometry x="-0.079" y="2" relative="1" as="geometry">
            <mxPoint x="-23" y="6" as="offset" />
          </mxGeometry>
        </mxCell>
        <mxCell id="5fc5e51f7ca293a3-130" value="二层交换机&lt;div&gt;&lt;div&gt;&lt;div&gt;&lt;br&gt;&lt;/div&gt;&lt;/div&gt;&lt;/div&gt;" style="fontColor=#0066CC;verticalAlign=middle;verticalLabelPosition=middle;labelPosition=left;align=right;html=1;fillColor=#CCCCCC;strokeColor=#6881B3;gradientColor=none;gradientDirection=north;strokeWidth=2;shape=mxgraph.networks.switch;rounded=1;shadow=0;comic=0;labelBackgroundColor=#ffffff;" parent="1" vertex="1">
          <mxGeometry x="-1680" y="543" width="100" height="30" as="geometry" />
        </mxCell>
        <mxCell id="5fc5e51f7ca293a3-131" value="一体机" style="fontColor=#0066CC;verticalAlign=top;verticalLabelPosition=bottom;labelPosition=center;align=center;html=1;fillColor=#CCCCCC;strokeColor=#6881B3;gradientColor=none;gradientDirection=north;strokeWidth=2;shape=mxgraph.networks.monitor;rounded=1;shadow=0;comic=0;labelBackgroundColor=#ffffff;outlineConnect=0;" parent="1" vertex="1">
          <mxGeometry x="-1870" y="124" width="100" height="70" as="geometry" />
        </mxCell>
        <mxCell id="5fc5e51f7ca293a3-132" value="一体机" style="fontColor=#0066CC;verticalAlign=top;verticalLabelPosition=bottom;labelPosition=center;align=center;html=1;fillColor=#CCCCCC;strokeColor=#6881B3;gradientColor=none;gradientDirection=north;strokeWidth=2;shape=mxgraph.networks.monitor;rounded=1;shadow=0;comic=0;labelBackgroundColor=#ffffff;outlineConnect=0;" parent="1" vertex="1">
          <mxGeometry x="-1680" y="124" width="100" height="70" as="geometry" />
        </mxCell>
        <mxCell id="5fc5e51f7ca293a3-133" value="一体机" style="fontColor=#0066CC;verticalAlign=top;verticalLabelPosition=bottom;labelPosition=center;align=center;html=1;fillColor=#CCCCCC;strokeColor=#6881B3;gradientColor=none;gradientDirection=north;strokeWidth=2;shape=mxgraph.networks.monitor;rounded=1;shadow=0;comic=0;labelBackgroundColor=#ffffff;outlineConnect=0;" parent="1" vertex="1">
          <mxGeometry x="-1490" y="124" width="100" height="70" as="geometry" />
        </mxCell>
        <mxCell id="8GZWlSdTsCK_pFLBvE7y-11" value="" style="edgeStyle=none;rounded=0;orthogonalLoop=1;jettySize=auto;html=1;" parent="1" source="5fc5e51f7ca293a3-134" target="5fc5e51f7ca293a3-138" edge="1">
          <mxGeometry relative="1" as="geometry" />
        </mxCell>
        <mxCell id="8GZWlSdTsCK_pFLBvE7y-12" value="Text" style="edgeLabel;html=1;align=center;verticalAlign=middle;resizable=0;points=[];" parent="8GZWlSdTsCK_pFLBvE7y-11" vertex="1" connectable="0">
          <mxGeometry x="0.3778" y="-5" relative="1" as="geometry">
            <mxPoint y="1" as="offset" />
          </mxGeometry>
        </mxCell>
        <mxCell id="5fc5e51f7ca293a3-134" value="一体机" style="fontColor=#0066CC;verticalAlign=top;verticalLabelPosition=bottom;labelPosition=center;align=center;html=1;fillColor=#CCCCCC;strokeColor=#6881B3;gradientColor=none;gradientDirection=north;strokeWidth=2;shape=mxgraph.networks.monitor;rounded=1;shadow=0;comic=0;labelBackgroundColor=#ffffff;outlineConnect=0;" parent="1" vertex="1">
          <mxGeometry x="-1870" y="354" width="100" height="70" as="geometry" />
        </mxCell>
        <mxCell id="5fc5e51f7ca293a3-135" value="一体机" style="fontColor=#0066CC;verticalAlign=top;verticalLabelPosition=bottom;labelPosition=center;align=center;html=1;fillColor=#CCCCCC;strokeColor=#6881B3;gradientColor=none;gradientDirection=north;strokeWidth=2;shape=mxgraph.networks.monitor;rounded=1;shadow=0;comic=0;labelBackgroundColor=#ffffff;outlineConnect=0;" parent="1" vertex="1">
          <mxGeometry x="-1490" y="229" width="100" height="70" as="geometry" />
        </mxCell>
        <mxCell id="5fc5e51f7ca293a3-136" value="一体机" style="fontColor=#0066CC;verticalAlign=top;verticalLabelPosition=bottom;labelPosition=center;align=center;html=1;fillColor=#CCCCCC;strokeColor=#6881B3;gradientColor=none;gradientDirection=north;strokeWidth=2;shape=mxgraph.networks.monitor;rounded=1;shadow=0;comic=0;labelBackgroundColor=#ffffff;outlineConnect=0;" parent="1" vertex="1">
          <mxGeometry x="-1490" y="334" width="100" height="70" as="geometry" />
        </mxCell>
        <mxCell id="5fc5e51f7ca293a3-137" style="edgeStyle=none;html=1;labelBackgroundColor=none;endArrow=none;strokeWidth=2;fontFamily=Verdana;fontSize=28;fontColor=#0066CC;rounded=0;strokeColor=#6881B3;" parent="1" source="5fc5e51f7ca293a3-138" target="5fc5e51f7ca293a3-130" edge="1">
          <mxGeometry relative="1" as="geometry" />
        </mxCell>
        <mxCell id="5fc5e51f7ca293a3-138" value="一体机" style="fontColor=#0066CC;verticalAlign=top;verticalLabelPosition=bottom;labelPosition=center;align=center;html=1;fillColor=#CCCCCC;strokeColor=#6881B3;gradientColor=none;gradientDirection=north;strokeWidth=2;shape=mxgraph.networks.monitor;rounded=1;shadow=0;comic=0;labelBackgroundColor=#ffffff;outlineConnect=0;" parent="1" vertex="1">
          <mxGeometry x="-1870" y="244" width="100" height="71" as="geometry" />
        </mxCell>
        <mxCell id="5fc5e51f7ca293a3-197" style="edgeStyle=none;html=1;labelBackgroundColor=none;endArrow=none;strokeWidth=5;fontFamily=Verdana;fontSize=28;fontColor=#0066CC;rounded=0;strokeColor=#6881B3;entryX=0.5;entryY=1;entryDx=0;entryDy=0;entryPerimeter=0;" parent="1" source="5fc5e51f7ca293a3-198" target="jQbY-VFzGhRPJN1Kly41-79" edge="1">
          <mxGeometry relative="1" as="geometry">
            <mxPoint x="-614" y="810" as="targetPoint" />
          </mxGeometry>
        </mxCell>
        <mxCell id="5fc5e51f7ca293a3-198" value="router" style="fontColor=#0066CC;verticalAlign=top;verticalLabelPosition=bottom;labelPosition=center;align=center;html=1;fillColor=#CCCCCC;strokeColor=#6881B3;gradientColor=none;gradientDirection=north;strokeWidth=2;shape=mxgraph.networks.router;rounded=1;shadow=0;comic=0;labelBackgroundColor=#ffffff;" parent="1" vertex="1">
          <mxGeometry x="-681" y="1185" width="100" height="30" as="geometry" />
        </mxCell>
        <mxCell id="5fc5e51f7ca293a3-199" style="edgeStyle=none;html=1;labelBackgroundColor=none;endArrow=none;strokeWidth=2;fontFamily=Verdana;fontSize=28;fontColor=#0066CC;rounded=0;strokeColor=#6881B3;" parent="1" source="5fc5e51f7ca293a3-206" target="5fc5e51f7ca293a3-207" edge="1">
          <mxGeometry relative="1" as="geometry" />
        </mxCell>
        <mxCell id="5fc5e51f7ca293a3-200" style="edgeStyle=none;html=1;labelBackgroundColor=none;endArrow=none;strokeWidth=2;fontFamily=Verdana;fontSize=28;fontColor=#0066CC;rounded=0;strokeColor=#6881B3;" parent="1" source="5fc5e51f7ca293a3-206" target="5fc5e51f7ca293a3-208" edge="1">
          <mxGeometry relative="1" as="geometry" />
        </mxCell>
        <mxCell id="5fc5e51f7ca293a3-201" style="edgeStyle=none;html=1;labelBackgroundColor=none;endArrow=none;strokeWidth=2;fontFamily=Verdana;fontSize=28;fontColor=#0066CC;rounded=0;strokeColor=#6881B3;" parent="1" source="5fc5e51f7ca293a3-206" target="5fc5e51f7ca293a3-209" edge="1">
          <mxGeometry relative="1" as="geometry" />
        </mxCell>
        <mxCell id="5fc5e51f7ca293a3-202" style="edgeStyle=none;html=1;labelBackgroundColor=none;endArrow=none;strokeWidth=2;fontFamily=Verdana;fontSize=28;fontColor=#0066CC;rounded=0;strokeColor=#6881B3;" parent="1" source="5fc5e51f7ca293a3-206" target="5fc5e51f7ca293a3-212" edge="1">
          <mxGeometry relative="1" as="geometry" />
        </mxCell>
        <mxCell id="5fc5e51f7ca293a3-203" style="edgeStyle=none;html=1;labelBackgroundColor=none;endArrow=none;strokeWidth=2;fontFamily=Verdana;fontSize=28;fontColor=#0066CC;rounded=0;strokeColor=#6881B3;" parent="1" source="5fc5e51f7ca293a3-206" target="5fc5e51f7ca293a3-211" edge="1">
          <mxGeometry relative="1" as="geometry" />
        </mxCell>
        <mxCell id="5fc5e51f7ca293a3-204" style="edgeStyle=none;html=1;labelBackgroundColor=none;endArrow=none;strokeWidth=2;fontFamily=Verdana;fontSize=28;fontColor=#0066CC;rounded=0;strokeColor=#6881B3;" parent="1" source="5fc5e51f7ca293a3-206" target="5fc5e51f7ca293a3-210" edge="1">
          <mxGeometry relative="1" as="geometry" />
        </mxCell>
        <mxCell id="5fc5e51f7ca293a3-205" style="edgeStyle=none;html=1;labelBackgroundColor=none;endArrow=none;strokeWidth=2;fontFamily=Verdana;fontSize=28;fontColor=#0066CC;rounded=0;strokeColor=#6881B3;" parent="1" source="5fc5e51f7ca293a3-206" target="5fc5e51f7ca293a3-198" edge="1">
          <mxGeometry relative="1" as="geometry" />
        </mxCell>
        <mxCell id="5fc5e51f7ca293a3-206" value="switch" style="fontColor=#0066CC;verticalAlign=top;verticalLabelPosition=bottom;labelPosition=center;align=center;html=1;fillColor=#CCCCCC;strokeColor=#6881B3;gradientColor=none;gradientDirection=north;strokeWidth=2;shape=mxgraph.networks.switch;rounded=1;shadow=0;comic=0;labelBackgroundColor=#ffffff;" parent="1" vertex="1">
          <mxGeometry x="-661" y="1380" width="100" height="30" as="geometry" />
        </mxCell>
        <mxCell id="5fc5e51f7ca293a3-207" value="workstation" style="fontColor=#0066CC;verticalAlign=top;verticalLabelPosition=bottom;labelPosition=center;align=center;html=1;fillColor=#CCCCCC;strokeColor=#6881B3;gradientColor=none;gradientDirection=north;strokeWidth=2;shape=mxgraph.networks.pc;rounded=1;shadow=0;comic=0;labelBackgroundColor=#ffffff;" parent="1" vertex="1">
          <mxGeometry x="-821" y="1260" width="100" height="70" as="geometry" />
        </mxCell>
        <mxCell id="5fc5e51f7ca293a3-208" value="workstation" style="fontColor=#0066CC;verticalAlign=top;verticalLabelPosition=bottom;labelPosition=center;align=center;html=1;fillColor=#CCCCCC;strokeColor=#6881B3;gradientColor=none;gradientDirection=north;strokeWidth=2;shape=mxgraph.networks.pc;rounded=1;shadow=0;comic=0;labelBackgroundColor=#ffffff;" parent="1" vertex="1">
          <mxGeometry x="-886" y="1350" width="100" height="70" as="geometry" />
        </mxCell>
        <mxCell id="5fc5e51f7ca293a3-209" value="workstation" style="fontColor=#0066CC;verticalAlign=top;verticalLabelPosition=bottom;labelPosition=center;align=center;html=1;fillColor=#CCCCCC;strokeColor=#6881B3;gradientColor=none;gradientDirection=north;strokeWidth=2;shape=mxgraph.networks.pc;rounded=1;shadow=0;comic=0;labelBackgroundColor=#ffffff;" parent="1" vertex="1">
          <mxGeometry x="-571" y="1260" width="100" height="70" as="geometry" />
        </mxCell>
        <mxCell id="5fc5e51f7ca293a3-210" value="workstation" style="fontColor=#0066CC;verticalAlign=top;verticalLabelPosition=bottom;labelPosition=center;align=center;html=1;fillColor=#CCCCCC;strokeColor=#6881B3;gradientColor=none;gradientDirection=north;strokeWidth=2;shape=mxgraph.networks.pc;rounded=1;shadow=0;comic=0;labelBackgroundColor=#ffffff;" parent="1" vertex="1">
          <mxGeometry x="-831" y="1450" width="100" height="70" as="geometry" />
        </mxCell>
        <mxCell id="5fc5e51f7ca293a3-211" value="workstation" style="fontColor=#0066CC;verticalAlign=top;verticalLabelPosition=bottom;labelPosition=center;align=center;html=1;fillColor=#CCCCCC;strokeColor=#6881B3;gradientColor=none;gradientDirection=north;strokeWidth=2;shape=mxgraph.networks.pc;rounded=1;shadow=0;comic=0;labelBackgroundColor=#ffffff;" parent="1" vertex="1">
          <mxGeometry x="-691" y="1450" width="100" height="70" as="geometry" />
        </mxCell>
        <mxCell id="5fc5e51f7ca293a3-212" value="workstation" style="fontColor=#0066CC;verticalAlign=top;verticalLabelPosition=bottom;labelPosition=center;align=center;html=1;fillColor=#CCCCCC;strokeColor=#6881B3;gradientColor=none;gradientDirection=north;strokeWidth=2;shape=mxgraph.networks.pc;rounded=1;shadow=0;comic=0;labelBackgroundColor=#ffffff;" parent="1" vertex="1">
          <mxGeometry x="-561" y="1450" width="100" height="70" as="geometry" />
        </mxCell>
        <mxCell id="5fc5e51f7ca293a3-213" style="edgeStyle=none;html=1;labelBackgroundColor=none;endArrow=none;strokeWidth=2;fontFamily=Verdana;fontSize=28;fontColor=#0066CC;rounded=0;strokeColor=#6881B3;" parent="1" source="5fc5e51f7ca293a3-214" target="5fc5e51f7ca293a3-206" edge="1">
          <mxGeometry relative="1" as="geometry" />
        </mxCell>
        <mxCell id="5fc5e51f7ca293a3-214" value="printer" style="fontColor=#0066CC;verticalAlign=top;verticalLabelPosition=bottom;labelPosition=center;align=center;html=1;fillColor=#CCCCCC;strokeColor=#6881B3;gradientColor=none;gradientDirection=north;strokeWidth=2;shape=mxgraph.networks.printer;rounded=1;shadow=0;comic=0;labelBackgroundColor=#ffffff;" parent="1" vertex="1">
          <mxGeometry x="-421" y="1335" width="100" height="100" as="geometry" />
        </mxCell>
        <mxCell id="8GZWlSdTsCK_pFLBvE7y-19" style="edgeStyle=none;html=1;labelBackgroundColor=none;endArrow=none;strokeWidth=5;fontFamily=Verdana;fontSize=28;fontColor=#0066CC;rounded=0;strokeColor=#6881B3;exitX=0.5;exitY=1;exitDx=0;exitDy=0;exitPerimeter=0;entryX=0.5;entryY=0;entryDx=0;entryDy=0;entryPerimeter=0;" parent="1" source="jQbY-VFzGhRPJN1Kly41-15" target="8GZWlSdTsCK_pFLBvE7y-20" edge="1">
          <mxGeometry relative="1" as="geometry">
            <mxPoint x="-1572" y="434" as="sourcePoint" />
            <mxPoint x="-1447" y="575" as="targetPoint" />
          </mxGeometry>
        </mxCell>
        <mxCell id="8GZWlSdTsCK_pFLBvE7y-20" value="软路由" style="fontColor=#0066CC;verticalAlign=middle;verticalLabelPosition=middle;labelPosition=left;align=right;html=1;outlineConnect=0;fillColor=#E6E6E6;strokeColor=#6881B3;gradientColor=none;gradientDirection=north;strokeWidth=2;shape=mxgraph.networks.router;shadow=0;dashed=1;" parent="1" vertex="1">
          <mxGeometry x="-1680" y="848.5" width="100" height="30" as="geometry" />
        </mxCell>
        <mxCell id="8GZWlSdTsCK_pFLBvE7y-28" value="" style="verticalLabelPosition=bottom;html=1;verticalAlign=top;align=center;strokeColor=none;fillColor=#00BEF2;shape=mxgraph.azure.virtual_machine;" parent="1" vertex="1">
          <mxGeometry x="-1870" y="1165" width="100" height="70" as="geometry" />
        </mxCell>
        <mxCell id="8GZWlSdTsCK_pFLBvE7y-29" value="" style="verticalLabelPosition=bottom;html=1;verticalAlign=top;align=center;strokeColor=none;fillColor=#00BEF2;shape=mxgraph.azure.virtual_machine;" parent="1" vertex="1">
          <mxGeometry x="-1490" y="1165" width="100" height="70" as="geometry" />
        </mxCell>
        <mxCell id="8GZWlSdTsCK_pFLBvE7y-31" value="" style="verticalLabelPosition=bottom;html=1;verticalAlign=top;align=center;strokeColor=none;fillColor=#00BEF2;shape=mxgraph.azure.virtual_machine;" parent="1" vertex="1">
          <mxGeometry x="-1870" y="1286" width="100" height="70" as="geometry" />
        </mxCell>
        <mxCell id="8GZWlSdTsCK_pFLBvE7y-32" value="" style="verticalLabelPosition=bottom;html=1;verticalAlign=top;align=center;strokeColor=none;fillColor=#00BEF2;shape=mxgraph.azure.virtual_machine;" parent="1" vertex="1">
          <mxGeometry x="-1490" y="1286" width="100" height="70" as="geometry" />
        </mxCell>
        <mxCell id="8GZWlSdTsCK_pFLBvE7y-38" value="" style="verticalLabelPosition=bottom;html=1;verticalAlign=top;align=center;strokeColor=none;fillColor=#00BEF2;shape=mxgraph.azure.virtual_machine;" parent="1" vertex="1">
          <mxGeometry x="-1870" y="1405" width="100" height="70" as="geometry" />
        </mxCell>
        <mxCell id="8GZWlSdTsCK_pFLBvE7y-39" value="" style="verticalLabelPosition=bottom;html=1;verticalAlign=top;align=center;strokeColor=none;fillColor=#00BEF2;shape=mxgraph.azure.virtual_machine;" parent="1" vertex="1">
          <mxGeometry x="-1490" y="1405" width="100" height="70" as="geometry" />
        </mxCell>
        <mxCell id="8GZWlSdTsCK_pFLBvE7y-40" value="" style="verticalLabelPosition=bottom;html=1;verticalAlign=top;align=center;strokeColor=none;fillColor=#00BEF2;shape=mxgraph.azure.virtual_machine;" parent="1" vertex="1">
          <mxGeometry x="-1680" y="1405" width="100" height="70" as="geometry" />
        </mxCell>
        <mxCell id="8GZWlSdTsCK_pFLBvE7y-41" value="虚拟交换机" style="fontColor=#0066CC;verticalAlign=top;verticalLabelPosition=bottom;labelPosition=center;align=center;html=1;fillColor=#E6E6E6;strokeColor=#6881B3;gradientColor=none;gradientDirection=north;strokeWidth=2;shape=mxgraph.networks.switch;rounded=1;shadow=0;comic=0;labelBackgroundColor=#ffffff;dashed=1;" parent="1" vertex="1">
          <mxGeometry x="-1870" y="943.5" width="100" height="30" as="geometry" />
        </mxCell>
        <mxCell id="8GZWlSdTsCK_pFLBvE7y-45" value="" style="verticalLabelPosition=bottom;html=1;verticalAlign=top;align=center;strokeColor=none;fillColor=#00BEF2;shape=mxgraph.azure.virtual_machine;" parent="1" vertex="1">
          <mxGeometry x="-1680" y="1165" width="100" height="70" as="geometry" />
        </mxCell>
        <mxCell id="8GZWlSdTsCK_pFLBvE7y-46" value="" style="verticalLabelPosition=bottom;html=1;verticalAlign=top;align=center;strokeColor=none;fillColor=#00BEF2;shape=mxgraph.azure.virtual_machine;" parent="1" vertex="1">
          <mxGeometry x="-1680" y="1286" width="100" height="70" as="geometry" />
        </mxCell>
        <mxCell id="8GZWlSdTsCK_pFLBvE7y-49" value="&lt;div&gt;&lt;div&gt;&lt;div&gt;虚拟交换机&lt;/div&gt;&lt;/div&gt;&lt;/div&gt;" style="fontColor=#0066CC;verticalAlign=top;verticalLabelPosition=bottom;labelPosition=center;align=center;html=1;fillColor=#E6E6E6;strokeColor=#6881B3;gradientColor=none;gradientDirection=north;strokeWidth=2;shape=mxgraph.networks.switch;rounded=1;shadow=0;comic=0;labelBackgroundColor=#ffffff;dashed=1;" parent="1" vertex="1">
          <mxGeometry x="-1680" y="943.5" width="100" height="30" as="geometry" />
        </mxCell>
        <mxCell id="8GZWlSdTsCK_pFLBvE7y-50" value="&lt;div&gt;&lt;div&gt;&lt;div&gt;虚拟交换机&lt;/div&gt;&lt;/div&gt;&lt;/div&gt;" style="fontColor=#0066CC;verticalAlign=top;verticalLabelPosition=bottom;labelPosition=center;align=center;html=1;fillColor=#E6E6E6;strokeColor=#6881B3;gradientColor=none;gradientDirection=north;strokeWidth=2;shape=mxgraph.networks.switch;rounded=1;shadow=0;comic=0;labelBackgroundColor=#ffffff;dashed=1;" parent="1" vertex="1">
          <mxGeometry x="-1490" y="943.5" width="100" height="30" as="geometry" />
        </mxCell>
        <mxCell id="8GZWlSdTsCK_pFLBvE7y-51" style="edgeStyle=none;html=1;labelBackgroundColor=none;endArrow=none;strokeWidth=5;fontFamily=Verdana;fontSize=28;fontColor=#0066CC;rounded=0;strokeColor=#6881B3;exitX=0.5;exitY=0;exitDx=0;exitDy=0;exitPerimeter=0;entryX=0.5;entryY=1;entryDx=0;entryDy=0;entryPerimeter=0;" parent="1" source="8GZWlSdTsCK_pFLBvE7y-50" target="8GZWlSdTsCK_pFLBvE7y-20" edge="1">
          <mxGeometry relative="1" as="geometry">
            <mxPoint x="-1620" y="839.5" as="sourcePoint" />
            <mxPoint x="-1813" y="1024.5" as="targetPoint" />
          </mxGeometry>
        </mxCell>
        <mxCell id="8GZWlSdTsCK_pFLBvE7y-52" value="10.30.0.0/16" style="edgeLabel;html=1;align=center;verticalAlign=middle;resizable=0;points=[];" parent="8GZWlSdTsCK_pFLBvE7y-51" vertex="1" connectable="0">
          <mxGeometry x="-0.079" y="2" relative="1" as="geometry">
            <mxPoint y="1" as="offset" />
          </mxGeometry>
        </mxCell>
        <mxCell id="8GZWlSdTsCK_pFLBvE7y-53" style="edgeStyle=none;html=1;labelBackgroundColor=none;endArrow=none;strokeWidth=5;fontFamily=Verdana;fontSize=28;fontColor=#0066CC;rounded=0;strokeColor=#6881B3;exitX=0.5;exitY=0;exitDx=0;exitDy=0;exitPerimeter=0;entryX=0.5;entryY=1;entryDx=0;entryDy=0;entryPerimeter=0;" parent="1" source="8GZWlSdTsCK_pFLBvE7y-49" target="8GZWlSdTsCK_pFLBvE7y-20" edge="1">
          <mxGeometry relative="1" as="geometry">
            <mxPoint x="-1433" y="1024.5" as="sourcePoint" />
            <mxPoint x="-1620" y="835.5" as="targetPoint" />
          </mxGeometry>
        </mxCell>
        <mxCell id="8GZWlSdTsCK_pFLBvE7y-54" value="10.20.0.0/16" style="edgeLabel;html=1;align=center;verticalAlign=middle;resizable=0;points=[];" parent="8GZWlSdTsCK_pFLBvE7y-53" vertex="1" connectable="0">
          <mxGeometry x="-0.079" y="2" relative="1" as="geometry">
            <mxPoint y="1" as="offset" />
          </mxGeometry>
        </mxCell>
        <mxCell id="jQbY-VFzGhRPJN1Kly41-3" style="edgeStyle=none;html=1;labelBackgroundColor=none;endArrow=none;strokeWidth=5;fontFamily=Verdana;fontSize=28;fontColor=#0066CC;rounded=0;strokeColor=#6881B3;exitX=0.5;exitY=0;exitDx=0;exitDy=0;entryX=0.5;entryY=1;entryDx=0;entryDy=0;entryPerimeter=0;" edge="1" parent="1" source="jQbY-VFzGhRPJN1Kly41-2" target="8GZWlSdTsCK_pFLBvE7y-50">
          <mxGeometry relative="1" as="geometry">
            <mxPoint x="-1430" y="954" as="sourcePoint" />
            <mxPoint x="-1620" y="889" as="targetPoint" />
          </mxGeometry>
        </mxCell>
        <mxCell id="jQbY-VFzGhRPJN1Kly41-4" value="10.30.0.0/16&lt;div&gt;10G网路&lt;/div&gt;&lt;div&gt;无外网&lt;/div&gt;" style="edgeLabel;html=1;align=center;verticalAlign=middle;resizable=0;points=[];" vertex="1" connectable="0" parent="jQbY-VFzGhRPJN1Kly41-3">
          <mxGeometry x="-0.079" y="2" relative="1" as="geometry">
            <mxPoint x="24" y="-15" as="offset" />
          </mxGeometry>
        </mxCell>
        <mxCell id="jQbY-VFzGhRPJN1Kly41-7" style="edgeStyle=none;html=1;labelBackgroundColor=none;endArrow=none;strokeWidth=5;fontFamily=Verdana;fontSize=28;fontColor=#0066CC;rounded=0;strokeColor=#6881B3;entryX=0.5;entryY=1;entryDx=0;entryDy=0;entryPerimeter=0;exitX=0.5;exitY=0;exitDx=0;exitDy=0;" edge="1" parent="1" source="jQbY-VFzGhRPJN1Kly41-2" target="8GZWlSdTsCK_pFLBvE7y-49">
          <mxGeometry relative="1" as="geometry">
            <mxPoint x="-1630" y="1182" as="sourcePoint" />
            <mxPoint x="-1430" y="984" as="targetPoint" />
          </mxGeometry>
        </mxCell>
        <mxCell id="jQbY-VFzGhRPJN1Kly41-8" value="10.30.0.0/16&lt;div&gt;10G网路&lt;/div&gt;&lt;div&gt;策略网络&lt;/div&gt;" style="edgeLabel;html=1;align=center;verticalAlign=middle;resizable=0;points=[];" vertex="1" connectable="0" parent="jQbY-VFzGhRPJN1Kly41-7">
          <mxGeometry x="-0.079" y="2" relative="1" as="geometry">
            <mxPoint y="-16" as="offset" />
          </mxGeometry>
        </mxCell>
        <mxCell id="jQbY-VFzGhRPJN1Kly41-13" value="&lt;font style=&quot;font-size: 18px;&quot;&gt;多选一&lt;/font&gt;" style="edgeLabel;html=1;align=center;verticalAlign=middle;resizable=0;points=[];" vertex="1" connectable="0" parent="jQbY-VFzGhRPJN1Kly41-7">
          <mxGeometry x="-0.6835" relative="1" as="geometry">
            <mxPoint y="-16" as="offset" />
          </mxGeometry>
        </mxCell>
        <mxCell id="jQbY-VFzGhRPJN1Kly41-10" style="edgeStyle=none;html=1;labelBackgroundColor=none;endArrow=none;strokeWidth=5;fontFamily=Verdana;fontSize=28;fontColor=#0066CC;rounded=0;strokeColor=#6881B3;entryX=0.5;entryY=1;entryDx=0;entryDy=0;entryPerimeter=0;exitX=0.5;exitY=0;exitDx=0;exitDy=0;" edge="1" parent="1" source="jQbY-VFzGhRPJN1Kly41-2" target="8GZWlSdTsCK_pFLBvE7y-41">
          <mxGeometry relative="1" as="geometry">
            <mxPoint x="-1640" y="1111" as="sourcePoint" />
            <mxPoint x="-1620" y="984" as="targetPoint" />
          </mxGeometry>
        </mxCell>
        <mxCell id="jQbY-VFzGhRPJN1Kly41-11" value="10.30.0.0/16&lt;div&gt;10G网路&lt;/div&gt;&lt;div&gt;正常外网&lt;/div&gt;" style="edgeLabel;html=1;align=center;verticalAlign=middle;resizable=0;points=[];" vertex="1" connectable="0" parent="jQbY-VFzGhRPJN1Kly41-10">
          <mxGeometry x="-0.079" y="2" relative="1" as="geometry">
            <mxPoint x="-21" y="-18" as="offset" />
          </mxGeometry>
        </mxCell>
        <mxCell id="jQbY-VFzGhRPJN1Kly41-16" value="" style="edgeStyle=none;html=1;labelBackgroundColor=none;endArrow=none;strokeWidth=5;fontFamily=Verdana;fontSize=28;fontColor=#0066CC;rounded=0;strokeColor=#6881B3;exitX=0.5;exitY=1;exitDx=0;exitDy=0;exitPerimeter=0;entryX=0.5;entryY=0;entryDx=0;entryDy=0;entryPerimeter=0;" edge="1" parent="1" source="5fc5e51f7ca293a3-130" target="jQbY-VFzGhRPJN1Kly41-15">
          <mxGeometry relative="1" as="geometry">
            <mxPoint x="-1630" y="573" as="sourcePoint" />
            <mxPoint x="-1630" y="849" as="targetPoint" />
          </mxGeometry>
        </mxCell>
        <mxCell id="jQbY-VFzGhRPJN1Kly41-17" value="192.168.1.0/24&lt;div&gt;10G网络&lt;/div&gt;" style="edgeLabel;html=1;align=center;verticalAlign=middle;resizable=0;points=[];" vertex="1" connectable="0" parent="jQbY-VFzGhRPJN1Kly41-16">
          <mxGeometry x="-0.3567" y="2" relative="1" as="geometry">
            <mxPoint x="-2" y="-2" as="offset" />
          </mxGeometry>
        </mxCell>
        <mxCell id="jQbY-VFzGhRPJN1Kly41-15" value="虚拟防火墙" style="fontColor=#0066CC;verticalAlign=middle;verticalLabelPosition=middle;labelPosition=left;align=right;html=1;outlineConnect=0;fillColor=none;strokeColor=#6881B3;gradientColor=none;gradientDirection=north;strokeWidth=2;shape=mxgraph.networks.firewall;" vertex="1" parent="1">
          <mxGeometry x="-1655" y="739" width="50" height="50" as="geometry" />
        </mxCell>
        <mxCell id="jQbY-VFzGhRPJN1Kly41-19" value="&lt;font style=&quot;font-size: 24px;&quot;&gt;教室1&lt;/font&gt;" style="text;strokeColor=none;align=center;fillColor=none;html=1;verticalAlign=middle;whiteSpace=wrap;rounded=0;fontStyle=1;fontColor=#FF0000;" vertex="1" parent="1">
          <mxGeometry x="-2100" y="74" width="110" height="30" as="geometry" />
        </mxCell>
        <mxCell id="jQbY-VFzGhRPJN1Kly41-20" value="&lt;span style=&quot;font-size: 24px;&quot;&gt;&lt;font color=&quot;#0000ff&quot;&gt;虚拟机&lt;/font&gt;&lt;/span&gt;" style="text;strokeColor=none;align=center;fillColor=none;html=1;verticalAlign=middle;whiteSpace=wrap;rounded=0;fontStyle=1;fontColor=#FF0000;" vertex="1" parent="1">
          <mxGeometry x="-1920" y="1119" width="110" height="30" as="geometry" />
        </mxCell>
        <mxCell id="jQbY-VFzGhRPJN1Kly41-21" value="&lt;div&gt;&lt;font style=&quot;font-size: 36px;&quot;&gt;&lt;br&gt;&lt;/font&gt;&lt;/div&gt;&lt;font style=&quot;font-size: 36px;&quot;&gt;互联网&lt;/font&gt;" style="html=1;outlineConnect=0;fillColor=#CCCCCC;strokeColor=#6881B3;gradientColor=none;gradientDirection=north;strokeWidth=2;shape=mxgraph.networks.cloud;fontColor=#ffffff;" vertex="1" parent="1">
          <mxGeometry x="-810.5" y="-279.99999999999994" width="370" height="205.56" as="geometry" />
        </mxCell>
        <mxCell id="jQbY-VFzGhRPJN1Kly41-22" value="" style="rounded=0;whiteSpace=wrap;html=1;fillColor=none;dashed=1;strokeColor=#0000FF;strokeWidth=2;" vertex="1" parent="1">
          <mxGeometry x="200" y="1107" width="580" height="390" as="geometry" />
        </mxCell>
        <mxCell id="jQbY-VFzGhRPJN1Kly41-23" value="" style="rounded=0;whiteSpace=wrap;html=1;fillColor=none;dashed=1;strokeWidth=3;strokeColor=#33FF33;" vertex="1" parent="1">
          <mxGeometry x="90" y="710" width="730" height="820" as="geometry" />
        </mxCell>
        <mxCell id="jQbY-VFzGhRPJN1Kly41-24" value="" style="rounded=0;whiteSpace=wrap;html=1;fillColor=none;dashed=1;strokeWidth=3;labelPosition=left;verticalLabelPosition=top;align=right;verticalAlign=bottom;strokeColor=#FF0000;" vertex="1" parent="1">
          <mxGeometry x="20" y="61" width="890" height="1551" as="geometry" />
        </mxCell>
        <mxCell id="jQbY-VFzGhRPJN1Kly41-25" value="&lt;font color=&quot;#33ff33&quot; style=&quot;font-size: 24px;&quot;&gt;&lt;b&gt;服务器集群&lt;/b&gt;&lt;/font&gt;" style="fontColor=#0066CC;verticalAlign=bottom;verticalLabelPosition=top;labelPosition=center;align=center;html=1;fillColor=none;strokeColor=#6881B3;gradientColor=none;gradientDirection=north;strokeWidth=2;shape=mxgraph.networks.server;rounded=1;shadow=0;comic=0;labelBackgroundColor=#ffffff;" vertex="1" parent="1">
          <mxGeometry x="120" y="759" width="90" height="89" as="geometry" />
        </mxCell>
        <mxCell id="jQbY-VFzGhRPJN1Kly41-26" style="edgeStyle=none;html=1;labelBackgroundColor=none;endArrow=none;strokeWidth=2;fontFamily=Verdana;fontSize=28;fontColor=#0066CC;rounded=0;strokeColor=#6881B3;" edge="1" parent="1" source="jQbY-VFzGhRPJN1Kly41-35" target="jQbY-VFzGhRPJN1Kly41-36">
          <mxGeometry relative="1" as="geometry" />
        </mxCell>
        <mxCell id="jQbY-VFzGhRPJN1Kly41-27" style="edgeStyle=none;html=1;labelBackgroundColor=none;endArrow=none;strokeWidth=2;fontFamily=Verdana;fontSize=28;fontColor=#0066CC;rounded=0;strokeColor=#6881B3;" edge="1" parent="1" source="jQbY-VFzGhRPJN1Kly41-35" target="jQbY-VFzGhRPJN1Kly41-37">
          <mxGeometry relative="1" as="geometry" />
        </mxCell>
        <mxCell id="jQbY-VFzGhRPJN1Kly41-28" value="192.168.2.0/24&lt;div&gt;&lt;div&gt;1G网络&lt;/div&gt;&lt;/div&gt;" style="edgeLabel;html=1;align=center;verticalAlign=middle;resizable=0;points=[];" vertex="1" connectable="0" parent="jQbY-VFzGhRPJN1Kly41-27">
          <mxGeometry x="-0.3667" relative="1" as="geometry">
            <mxPoint as="offset" />
          </mxGeometry>
        </mxCell>
        <mxCell id="jQbY-VFzGhRPJN1Kly41-29" style="edgeStyle=none;html=1;labelBackgroundColor=none;endArrow=none;strokeWidth=2;fontFamily=Verdana;fontSize=28;fontColor=#0066CC;rounded=0;strokeColor=#6881B3;" edge="1" parent="1" source="jQbY-VFzGhRPJN1Kly41-35" target="jQbY-VFzGhRPJN1Kly41-38">
          <mxGeometry relative="1" as="geometry" />
        </mxCell>
        <mxCell id="jQbY-VFzGhRPJN1Kly41-30" style="edgeStyle=none;html=1;labelBackgroundColor=none;endArrow=none;strokeWidth=2;fontFamily=Verdana;fontSize=28;fontColor=#0066CC;rounded=0;strokeColor=#6881B3;" edge="1" parent="1" source="jQbY-VFzGhRPJN1Kly41-35" target="jQbY-VFzGhRPJN1Kly41-43">
          <mxGeometry relative="1" as="geometry" />
        </mxCell>
        <mxCell id="jQbY-VFzGhRPJN1Kly41-31" style="edgeStyle=none;html=1;labelBackgroundColor=none;endArrow=none;strokeWidth=2;fontFamily=Verdana;fontSize=28;fontColor=#0066CC;rounded=0;strokeColor=#6881B3;" edge="1" parent="1" source="jQbY-VFzGhRPJN1Kly41-35" target="jQbY-VFzGhRPJN1Kly41-42">
          <mxGeometry relative="1" as="geometry" />
        </mxCell>
        <mxCell id="jQbY-VFzGhRPJN1Kly41-32" style="edgeStyle=none;html=1;labelBackgroundColor=none;endArrow=none;strokeWidth=2;fontFamily=Verdana;fontSize=28;fontColor=#0066CC;rounded=0;strokeColor=#6881B3;" edge="1" parent="1" source="jQbY-VFzGhRPJN1Kly41-35" target="jQbY-VFzGhRPJN1Kly41-41">
          <mxGeometry relative="1" as="geometry" />
        </mxCell>
        <mxCell id="jQbY-VFzGhRPJN1Kly41-33" style="edgeStyle=none;html=1;labelBackgroundColor=none;endArrow=none;strokeWidth=5;fontFamily=Verdana;fontSize=28;fontColor=#0066CC;rounded=0;strokeColor=#6881B3;exitX=0.5;exitY=1;exitDx=0;exitDy=0;exitPerimeter=0;entryX=0.5;entryY=0;entryDx=0;entryDy=0;entryPerimeter=0;" edge="1" parent="1" source="jQbY-VFzGhRPJN1Kly41-47" target="jQbY-VFzGhRPJN1Kly41-55">
          <mxGeometry relative="1" as="geometry">
            <mxPoint x="482" y="969.5" as="sourcePoint" />
            <mxPoint x="490" y="965.5" as="targetPoint" />
          </mxGeometry>
        </mxCell>
        <mxCell id="jQbY-VFzGhRPJN1Kly41-34" value="10.10.0.0/16" style="edgeLabel;html=1;align=center;verticalAlign=middle;resizable=0;points=[];" vertex="1" connectable="0" parent="jQbY-VFzGhRPJN1Kly41-33">
          <mxGeometry x="-0.079" y="2" relative="1" as="geometry">
            <mxPoint x="-23" y="6" as="offset" />
          </mxGeometry>
        </mxCell>
        <mxCell id="jQbY-VFzGhRPJN1Kly41-35" value="二层交换机&lt;div&gt;&lt;div&gt;&lt;div&gt;&lt;br&gt;&lt;/div&gt;&lt;/div&gt;&lt;/div&gt;" style="fontColor=#0066CC;verticalAlign=middle;verticalLabelPosition=middle;labelPosition=right;align=left;html=1;fillColor=#CCCCCC;strokeColor=#6881B3;gradientColor=none;gradientDirection=north;strokeWidth=2;shape=mxgraph.networks.switch;rounded=1;shadow=0;comic=0;labelBackgroundColor=#ffffff;" vertex="1" parent="1">
          <mxGeometry x="440" y="543" width="100" height="30" as="geometry" />
        </mxCell>
        <mxCell id="jQbY-VFzGhRPJN1Kly41-36" value="一体机" style="fontColor=#0066CC;verticalAlign=top;verticalLabelPosition=bottom;labelPosition=center;align=center;html=1;fillColor=#CCCCCC;strokeColor=#6881B3;gradientColor=none;gradientDirection=north;strokeWidth=2;shape=mxgraph.networks.monitor;rounded=1;shadow=0;comic=0;labelBackgroundColor=#ffffff;outlineConnect=0;" vertex="1" parent="1">
          <mxGeometry x="250" y="124" width="100" height="70" as="geometry" />
        </mxCell>
        <mxCell id="jQbY-VFzGhRPJN1Kly41-37" value="一体机" style="fontColor=#0066CC;verticalAlign=top;verticalLabelPosition=bottom;labelPosition=center;align=center;html=1;fillColor=#CCCCCC;strokeColor=#6881B3;gradientColor=none;gradientDirection=north;strokeWidth=2;shape=mxgraph.networks.monitor;rounded=1;shadow=0;comic=0;labelBackgroundColor=#ffffff;outlineConnect=0;" vertex="1" parent="1">
          <mxGeometry x="440" y="124" width="100" height="70" as="geometry" />
        </mxCell>
        <mxCell id="jQbY-VFzGhRPJN1Kly41-38" value="一体机" style="fontColor=#0066CC;verticalAlign=top;verticalLabelPosition=bottom;labelPosition=center;align=center;html=1;fillColor=#CCCCCC;strokeColor=#6881B3;gradientColor=none;gradientDirection=north;strokeWidth=2;shape=mxgraph.networks.monitor;rounded=1;shadow=0;comic=0;labelBackgroundColor=#ffffff;outlineConnect=0;" vertex="1" parent="1">
          <mxGeometry x="630" y="124" width="100" height="70" as="geometry" />
        </mxCell>
        <mxCell id="jQbY-VFzGhRPJN1Kly41-39" value="" style="edgeStyle=none;rounded=0;orthogonalLoop=1;jettySize=auto;html=1;" edge="1" parent="1" source="jQbY-VFzGhRPJN1Kly41-41" target="jQbY-VFzGhRPJN1Kly41-45">
          <mxGeometry relative="1" as="geometry" />
        </mxCell>
        <mxCell id="jQbY-VFzGhRPJN1Kly41-40" value="Text" style="edgeLabel;html=1;align=center;verticalAlign=middle;resizable=0;points=[];" vertex="1" connectable="0" parent="jQbY-VFzGhRPJN1Kly41-39">
          <mxGeometry x="0.3778" y="-5" relative="1" as="geometry">
            <mxPoint y="1" as="offset" />
          </mxGeometry>
        </mxCell>
        <mxCell id="jQbY-VFzGhRPJN1Kly41-41" value="一体机" style="fontColor=#0066CC;verticalAlign=top;verticalLabelPosition=bottom;labelPosition=center;align=center;html=1;fillColor=#CCCCCC;strokeColor=#6881B3;gradientColor=none;gradientDirection=north;strokeWidth=2;shape=mxgraph.networks.monitor;rounded=1;shadow=0;comic=0;labelBackgroundColor=#ffffff;outlineConnect=0;" vertex="1" parent="1">
          <mxGeometry x="250" y="354" width="100" height="70" as="geometry" />
        </mxCell>
        <mxCell id="jQbY-VFzGhRPJN1Kly41-42" value="一体机" style="fontColor=#0066CC;verticalAlign=top;verticalLabelPosition=bottom;labelPosition=center;align=center;html=1;fillColor=#CCCCCC;strokeColor=#6881B3;gradientColor=none;gradientDirection=north;strokeWidth=2;shape=mxgraph.networks.monitor;rounded=1;shadow=0;comic=0;labelBackgroundColor=#ffffff;outlineConnect=0;" vertex="1" parent="1">
          <mxGeometry x="630" y="229" width="100" height="70" as="geometry" />
        </mxCell>
        <mxCell id="jQbY-VFzGhRPJN1Kly41-43" value="一体机" style="fontColor=#0066CC;verticalAlign=top;verticalLabelPosition=bottom;labelPosition=center;align=center;html=1;fillColor=#CCCCCC;strokeColor=#6881B3;gradientColor=none;gradientDirection=north;strokeWidth=2;shape=mxgraph.networks.monitor;rounded=1;shadow=0;comic=0;labelBackgroundColor=#ffffff;outlineConnect=0;" vertex="1" parent="1">
          <mxGeometry x="630" y="334" width="100" height="70" as="geometry" />
        </mxCell>
        <mxCell id="jQbY-VFzGhRPJN1Kly41-44" style="edgeStyle=none;html=1;labelBackgroundColor=none;endArrow=none;strokeWidth=2;fontFamily=Verdana;fontSize=28;fontColor=#0066CC;rounded=0;strokeColor=#6881B3;" edge="1" parent="1" source="jQbY-VFzGhRPJN1Kly41-45" target="jQbY-VFzGhRPJN1Kly41-35">
          <mxGeometry relative="1" as="geometry" />
        </mxCell>
        <mxCell id="jQbY-VFzGhRPJN1Kly41-45" value="一体机" style="fontColor=#0066CC;verticalAlign=top;verticalLabelPosition=bottom;labelPosition=center;align=center;html=1;fillColor=#CCCCCC;strokeColor=#6881B3;gradientColor=none;gradientDirection=north;strokeWidth=2;shape=mxgraph.networks.monitor;rounded=1;shadow=0;comic=0;labelBackgroundColor=#ffffff;outlineConnect=0;" vertex="1" parent="1">
          <mxGeometry x="250" y="244" width="100" height="71" as="geometry" />
        </mxCell>
        <mxCell id="jQbY-VFzGhRPJN1Kly41-46" style="edgeStyle=none;html=1;labelBackgroundColor=none;endArrow=none;strokeWidth=5;fontFamily=Verdana;fontSize=28;fontColor=#0066CC;rounded=0;strokeColor=#6881B3;exitX=0.5;exitY=1;exitDx=0;exitDy=0;exitPerimeter=0;entryX=0.5;entryY=0;entryDx=0;entryDy=0;entryPerimeter=0;" edge="1" parent="1" source="jQbY-VFzGhRPJN1Kly41-73" target="jQbY-VFzGhRPJN1Kly41-47">
          <mxGeometry relative="1" as="geometry">
            <mxPoint x="548" y="434" as="sourcePoint" />
            <mxPoint x="673" y="575" as="targetPoint" />
          </mxGeometry>
        </mxCell>
        <mxCell id="jQbY-VFzGhRPJN1Kly41-47" value="软路由" style="fontColor=#0066CC;verticalAlign=middle;verticalLabelPosition=middle;labelPosition=left;align=right;html=1;outlineConnect=0;fillColor=#E6E6E6;strokeColor=#6881B3;gradientColor=none;gradientDirection=north;strokeWidth=2;shape=mxgraph.networks.router;shadow=0;dashed=1;" vertex="1" parent="1">
          <mxGeometry x="440" y="848.5" width="100" height="30" as="geometry" />
        </mxCell>
        <mxCell id="jQbY-VFzGhRPJN1Kly41-48" value="" style="verticalLabelPosition=bottom;html=1;verticalAlign=top;align=center;strokeColor=none;fillColor=#00BEF2;shape=mxgraph.azure.virtual_machine;" vertex="1" parent="1">
          <mxGeometry x="250" y="1165" width="100" height="70" as="geometry" />
        </mxCell>
        <mxCell id="jQbY-VFzGhRPJN1Kly41-49" value="" style="verticalLabelPosition=bottom;html=1;verticalAlign=top;align=center;strokeColor=none;fillColor=#00BEF2;shape=mxgraph.azure.virtual_machine;" vertex="1" parent="1">
          <mxGeometry x="630" y="1165" width="100" height="70" as="geometry" />
        </mxCell>
        <mxCell id="jQbY-VFzGhRPJN1Kly41-50" value="" style="verticalLabelPosition=bottom;html=1;verticalAlign=top;align=center;strokeColor=none;fillColor=#00BEF2;shape=mxgraph.azure.virtual_machine;" vertex="1" parent="1">
          <mxGeometry x="250" y="1286" width="100" height="70" as="geometry" />
        </mxCell>
        <mxCell id="jQbY-VFzGhRPJN1Kly41-51" value="" style="verticalLabelPosition=bottom;html=1;verticalAlign=top;align=center;strokeColor=none;fillColor=#00BEF2;shape=mxgraph.azure.virtual_machine;" vertex="1" parent="1">
          <mxGeometry x="630" y="1286" width="100" height="70" as="geometry" />
        </mxCell>
        <mxCell id="jQbY-VFzGhRPJN1Kly41-52" value="" style="verticalLabelPosition=bottom;html=1;verticalAlign=top;align=center;strokeColor=none;fillColor=#00BEF2;shape=mxgraph.azure.virtual_machine;" vertex="1" parent="1">
          <mxGeometry x="250" y="1405" width="100" height="70" as="geometry" />
        </mxCell>
        <mxCell id="jQbY-VFzGhRPJN1Kly41-53" value="" style="verticalLabelPosition=bottom;html=1;verticalAlign=top;align=center;strokeColor=none;fillColor=#00BEF2;shape=mxgraph.azure.virtual_machine;" vertex="1" parent="1">
          <mxGeometry x="630" y="1405" width="100" height="70" as="geometry" />
        </mxCell>
        <mxCell id="jQbY-VFzGhRPJN1Kly41-54" value="" style="verticalLabelPosition=bottom;html=1;verticalAlign=top;align=center;strokeColor=none;fillColor=#00BEF2;shape=mxgraph.azure.virtual_machine;" vertex="1" parent="1">
          <mxGeometry x="440" y="1405" width="100" height="70" as="geometry" />
        </mxCell>
        <mxCell id="jQbY-VFzGhRPJN1Kly41-55" value="虚拟交换机" style="fontColor=#0066CC;verticalAlign=top;verticalLabelPosition=bottom;labelPosition=center;align=center;html=1;fillColor=#E6E6E6;strokeColor=#6881B3;gradientColor=none;gradientDirection=north;strokeWidth=2;shape=mxgraph.networks.switch;rounded=1;shadow=0;comic=0;labelBackgroundColor=#ffffff;dashed=1;" vertex="1" parent="1">
          <mxGeometry x="250" y="943.5" width="100" height="30" as="geometry" />
        </mxCell>
        <mxCell id="jQbY-VFzGhRPJN1Kly41-56" value="" style="verticalLabelPosition=bottom;html=1;verticalAlign=top;align=center;strokeColor=none;fillColor=#00BEF2;shape=mxgraph.azure.virtual_machine;" vertex="1" parent="1">
          <mxGeometry x="440" y="1165" width="100" height="70" as="geometry" />
        </mxCell>
        <mxCell id="jQbY-VFzGhRPJN1Kly41-57" value="" style="verticalLabelPosition=bottom;html=1;verticalAlign=top;align=center;strokeColor=none;fillColor=#00BEF2;shape=mxgraph.azure.virtual_machine;" vertex="1" parent="1">
          <mxGeometry x="440" y="1286" width="100" height="70" as="geometry" />
        </mxCell>
        <mxCell id="jQbY-VFzGhRPJN1Kly41-58" value="&lt;div&gt;&lt;div&gt;&lt;div&gt;虚拟交换机&lt;/div&gt;&lt;/div&gt;&lt;/div&gt;" style="fontColor=#0066CC;verticalAlign=top;verticalLabelPosition=bottom;labelPosition=center;align=center;html=1;fillColor=#E6E6E6;strokeColor=#6881B3;gradientColor=none;gradientDirection=north;strokeWidth=2;shape=mxgraph.networks.switch;rounded=1;shadow=0;comic=0;labelBackgroundColor=#ffffff;dashed=1;" vertex="1" parent="1">
          <mxGeometry x="440" y="943.5" width="100" height="30" as="geometry" />
        </mxCell>
        <mxCell id="jQbY-VFzGhRPJN1Kly41-59" value="&lt;div&gt;&lt;div&gt;&lt;div&gt;虚拟交换机&lt;/div&gt;&lt;/div&gt;&lt;/div&gt;" style="fontColor=#0066CC;verticalAlign=top;verticalLabelPosition=bottom;labelPosition=center;align=center;html=1;fillColor=#E6E6E6;strokeColor=#6881B3;gradientColor=none;gradientDirection=north;strokeWidth=2;shape=mxgraph.networks.switch;rounded=1;shadow=0;comic=0;labelBackgroundColor=#ffffff;dashed=1;" vertex="1" parent="1">
          <mxGeometry x="630" y="943.5" width="100" height="30" as="geometry" />
        </mxCell>
        <mxCell id="jQbY-VFzGhRPJN1Kly41-60" style="edgeStyle=none;html=1;labelBackgroundColor=none;endArrow=none;strokeWidth=5;fontFamily=Verdana;fontSize=28;fontColor=#0066CC;rounded=0;strokeColor=#6881B3;exitX=0.5;exitY=0;exitDx=0;exitDy=0;exitPerimeter=0;entryX=0.5;entryY=1;entryDx=0;entryDy=0;entryPerimeter=0;" edge="1" parent="1" source="jQbY-VFzGhRPJN1Kly41-59" target="jQbY-VFzGhRPJN1Kly41-47">
          <mxGeometry relative="1" as="geometry">
            <mxPoint x="500" y="839.5" as="sourcePoint" />
            <mxPoint x="307" y="1024.5" as="targetPoint" />
          </mxGeometry>
        </mxCell>
        <mxCell id="jQbY-VFzGhRPJN1Kly41-61" value="10.30.0.0/16" style="edgeLabel;html=1;align=center;verticalAlign=middle;resizable=0;points=[];" vertex="1" connectable="0" parent="jQbY-VFzGhRPJN1Kly41-60">
          <mxGeometry x="-0.079" y="2" relative="1" as="geometry">
            <mxPoint y="1" as="offset" />
          </mxGeometry>
        </mxCell>
        <mxCell id="jQbY-VFzGhRPJN1Kly41-62" style="edgeStyle=none;html=1;labelBackgroundColor=none;endArrow=none;strokeWidth=5;fontFamily=Verdana;fontSize=28;fontColor=#0066CC;rounded=0;strokeColor=#6881B3;exitX=0.5;exitY=0;exitDx=0;exitDy=0;exitPerimeter=0;entryX=0.5;entryY=1;entryDx=0;entryDy=0;entryPerimeter=0;" edge="1" parent="1" source="jQbY-VFzGhRPJN1Kly41-58" target="jQbY-VFzGhRPJN1Kly41-47">
          <mxGeometry relative="1" as="geometry">
            <mxPoint x="687" y="1024.5" as="sourcePoint" />
            <mxPoint x="500" y="835.5" as="targetPoint" />
          </mxGeometry>
        </mxCell>
        <mxCell id="jQbY-VFzGhRPJN1Kly41-63" value="10.20.0.0/16" style="edgeLabel;html=1;align=center;verticalAlign=middle;resizable=0;points=[];" vertex="1" connectable="0" parent="jQbY-VFzGhRPJN1Kly41-62">
          <mxGeometry x="-0.079" y="2" relative="1" as="geometry">
            <mxPoint y="1" as="offset" />
          </mxGeometry>
        </mxCell>
        <mxCell id="jQbY-VFzGhRPJN1Kly41-64" style="edgeStyle=none;html=1;labelBackgroundColor=none;endArrow=none;strokeWidth=5;fontFamily=Verdana;fontSize=28;fontColor=#0066CC;rounded=0;strokeColor=#6881B3;exitX=0.5;exitY=0;exitDx=0;exitDy=0;entryX=0.5;entryY=1;entryDx=0;entryDy=0;entryPerimeter=0;" edge="1" parent="1" source="jQbY-VFzGhRPJN1Kly41-22" target="jQbY-VFzGhRPJN1Kly41-59">
          <mxGeometry relative="1" as="geometry">
            <mxPoint x="690" y="954" as="sourcePoint" />
            <mxPoint x="500" y="889" as="targetPoint" />
          </mxGeometry>
        </mxCell>
        <mxCell id="jQbY-VFzGhRPJN1Kly41-65" value="10.30.0.0/16&lt;div&gt;10G网路&lt;/div&gt;&lt;div&gt;无外网&lt;/div&gt;" style="edgeLabel;html=1;align=center;verticalAlign=middle;resizable=0;points=[];" vertex="1" connectable="0" parent="jQbY-VFzGhRPJN1Kly41-64">
          <mxGeometry x="-0.079" y="2" relative="1" as="geometry">
            <mxPoint x="24" y="-15" as="offset" />
          </mxGeometry>
        </mxCell>
        <mxCell id="jQbY-VFzGhRPJN1Kly41-66" style="edgeStyle=none;html=1;labelBackgroundColor=none;endArrow=none;strokeWidth=5;fontFamily=Verdana;fontSize=28;fontColor=#0066CC;rounded=0;strokeColor=#6881B3;entryX=0.5;entryY=1;entryDx=0;entryDy=0;entryPerimeter=0;exitX=0.5;exitY=0;exitDx=0;exitDy=0;" edge="1" parent="1" source="jQbY-VFzGhRPJN1Kly41-22" target="jQbY-VFzGhRPJN1Kly41-58">
          <mxGeometry relative="1" as="geometry">
            <mxPoint x="490" y="1182" as="sourcePoint" />
            <mxPoint x="690" y="984" as="targetPoint" />
          </mxGeometry>
        </mxCell>
        <mxCell id="jQbY-VFzGhRPJN1Kly41-67" value="10.30.0.0/16&lt;div&gt;10G网路&lt;/div&gt;&lt;div&gt;策略网络&lt;/div&gt;" style="edgeLabel;html=1;align=center;verticalAlign=middle;resizable=0;points=[];" vertex="1" connectable="0" parent="jQbY-VFzGhRPJN1Kly41-66">
          <mxGeometry x="-0.079" y="2" relative="1" as="geometry">
            <mxPoint y="-16" as="offset" />
          </mxGeometry>
        </mxCell>
        <mxCell id="jQbY-VFzGhRPJN1Kly41-68" value="&lt;font style=&quot;font-size: 18px;&quot;&gt;多选一&lt;/font&gt;" style="edgeLabel;html=1;align=center;verticalAlign=middle;resizable=0;points=[];" vertex="1" connectable="0" parent="jQbY-VFzGhRPJN1Kly41-66">
          <mxGeometry x="-0.6835" relative="1" as="geometry">
            <mxPoint y="-16" as="offset" />
          </mxGeometry>
        </mxCell>
        <mxCell id="jQbY-VFzGhRPJN1Kly41-69" style="edgeStyle=none;html=1;labelBackgroundColor=none;endArrow=none;strokeWidth=5;fontFamily=Verdana;fontSize=28;fontColor=#0066CC;rounded=0;strokeColor=#6881B3;entryX=0.5;entryY=1;entryDx=0;entryDy=0;entryPerimeter=0;exitX=0.5;exitY=0;exitDx=0;exitDy=0;" edge="1" parent="1" source="jQbY-VFzGhRPJN1Kly41-22" target="jQbY-VFzGhRPJN1Kly41-55">
          <mxGeometry relative="1" as="geometry">
            <mxPoint x="480" y="1111" as="sourcePoint" />
            <mxPoint x="500" y="984" as="targetPoint" />
          </mxGeometry>
        </mxCell>
        <mxCell id="jQbY-VFzGhRPJN1Kly41-70" value="10.30.0.0/16&lt;div&gt;10G网路&lt;/div&gt;&lt;div&gt;正常外网&lt;/div&gt;" style="edgeLabel;html=1;align=center;verticalAlign=middle;resizable=0;points=[];" vertex="1" connectable="0" parent="jQbY-VFzGhRPJN1Kly41-69">
          <mxGeometry x="-0.079" y="2" relative="1" as="geometry">
            <mxPoint x="-21" y="-18" as="offset" />
          </mxGeometry>
        </mxCell>
        <mxCell id="jQbY-VFzGhRPJN1Kly41-71" value="" style="edgeStyle=none;html=1;labelBackgroundColor=none;endArrow=none;strokeWidth=5;fontFamily=Verdana;fontSize=28;fontColor=#0066CC;rounded=0;strokeColor=#6881B3;exitX=0.5;exitY=1;exitDx=0;exitDy=0;exitPerimeter=0;entryX=0.5;entryY=0;entryDx=0;entryDy=0;entryPerimeter=0;" edge="1" parent="1" source="jQbY-VFzGhRPJN1Kly41-35" target="jQbY-VFzGhRPJN1Kly41-73">
          <mxGeometry relative="1" as="geometry">
            <mxPoint x="490" y="573" as="sourcePoint" />
            <mxPoint x="490" y="849" as="targetPoint" />
          </mxGeometry>
        </mxCell>
        <mxCell id="jQbY-VFzGhRPJN1Kly41-72" value="192.168.2.0/24&lt;div&gt;10G网络&lt;/div&gt;" style="edgeLabel;html=1;align=center;verticalAlign=middle;resizable=0;points=[];" vertex="1" connectable="0" parent="jQbY-VFzGhRPJN1Kly41-71">
          <mxGeometry x="-0.3567" y="2" relative="1" as="geometry">
            <mxPoint x="-2" y="-2" as="offset" />
          </mxGeometry>
        </mxCell>
        <mxCell id="jQbY-VFzGhRPJN1Kly41-73" value="虚拟防火墙" style="fontColor=#0066CC;verticalAlign=middle;verticalLabelPosition=middle;labelPosition=left;align=right;html=1;outlineConnect=0;fillColor=none;strokeColor=#6881B3;gradientColor=none;gradientDirection=north;strokeWidth=2;shape=mxgraph.networks.firewall;" vertex="1" parent="1">
          <mxGeometry x="465" y="739" width="50" height="50" as="geometry" />
        </mxCell>
        <mxCell id="jQbY-VFzGhRPJN1Kly41-74" value="&lt;font style=&quot;font-size: 24px;&quot;&gt;教室2&lt;/font&gt;" style="text;strokeColor=none;align=center;fillColor=none;html=1;verticalAlign=middle;whiteSpace=wrap;rounded=0;fontStyle=1;fontColor=#FF0000;" vertex="1" parent="1">
          <mxGeometry x="20" y="74" width="110" height="30" as="geometry" />
        </mxCell>
        <mxCell id="jQbY-VFzGhRPJN1Kly41-75" value="&lt;span style=&quot;font-size: 24px;&quot;&gt;&lt;font color=&quot;#0000ff&quot;&gt;虚拟机&lt;/font&gt;&lt;/span&gt;" style="text;strokeColor=none;align=center;fillColor=none;html=1;verticalAlign=middle;whiteSpace=wrap;rounded=0;fontStyle=1;fontColor=#FF0000;" vertex="1" parent="1">
          <mxGeometry x="200" y="1119" width="110" height="30" as="geometry" />
        </mxCell>
        <mxCell id="jQbY-VFzGhRPJN1Kly41-77" value="&lt;span style=&quot;font-size: 24px;&quot;&gt;教室办公室&lt;/span&gt;" style="text;strokeColor=none;align=center;fillColor=none;html=1;verticalAlign=middle;whiteSpace=wrap;rounded=0;fontStyle=1;fontColor=#FF0000;" vertex="1" parent="1">
          <mxGeometry x="-1040" y="1085" width="160" height="30" as="geometry" />
        </mxCell>
        <mxCell id="jQbY-VFzGhRPJN1Kly41-78" value="&lt;font style=&quot;font-size: 18px;&quot;&gt;学校核心交换机&lt;/font&gt;" style="sketch=0;points=[[0.015,0.015,0],[0.985,0.015,0],[0.985,0.985,0],[0.015,0.985,0],[0.25,0,0],[0.5,0,0],[0.75,0,0],[1,0.25,0],[1,0.5,0],[1,0.75,0],[0.75,1,0],[0.5,1,0],[0.25,1,0],[0,0.75,0],[0,0.5,0],[0,0.25,0]];verticalLabelPosition=bottom;html=1;verticalAlign=top;aspect=fixed;align=center;pointerEvents=1;shape=mxgraph.cisco19.rect;prIcon=l3_switch;fillColor=#FAFAFA;strokeColor=#005073;" vertex="1" parent="1">
          <mxGeometry x="-720.5" y="144" width="190" height="190" as="geometry" />
        </mxCell>
        <mxCell id="jQbY-VFzGhRPJN1Kly41-79" value="&lt;font style=&quot;font-size: 18px;&quot;&gt;楼栋汇聚/核心交换机&lt;/font&gt;" style="sketch=0;points=[[0.015,0.015,0],[0.985,0.015,0],[0.985,0.985,0],[0.015,0.985,0],[0.25,0,0],[0.5,0,0],[0.75,0,0],[1,0.25,0],[1,0.5,0],[1,0.75,0],[0.75,1,0],[0.5,1,0],[0.25,1,0],[0,0.75,0],[0,0.5,0],[0,0.25,0]];verticalLabelPosition=bottom;html=1;verticalAlign=top;aspect=fixed;align=center;pointerEvents=1;shape=mxgraph.cisco19.rect;prIcon=l3_switch;fillColor=#FAFAFA;strokeColor=#005073;" vertex="1" parent="1">
          <mxGeometry x="-681" y="503.5" width="111" height="111" as="geometry" />
        </mxCell>
        <mxCell id="jQbY-VFzGhRPJN1Kly41-81" value="" style="edgeStyle=none;html=1;labelBackgroundColor=none;endArrow=none;strokeWidth=5;fontFamily=Verdana;fontSize=28;fontColor=#0066CC;rounded=0;strokeColor=#6881B3;exitX=1;exitY=0.5;exitDx=0;exitDy=0;exitPerimeter=0;entryX=0;entryY=0.5;entryDx=0;entryDy=0;entryPerimeter=0;" edge="1" parent="1" source="5fc5e51f7ca293a3-130" target="jQbY-VFzGhRPJN1Kly41-94">
          <mxGeometry relative="1" as="geometry">
            <mxPoint x="-1350" y="520" as="sourcePoint" />
            <mxPoint x="-1380" y="559" as="targetPoint" />
          </mxGeometry>
        </mxCell>
        <mxCell id="jQbY-VFzGhRPJN1Kly41-82" value="192.168.1.0/24&lt;div&gt;10G网络&lt;/div&gt;" style="edgeLabel;html=1;align=center;verticalAlign=middle;resizable=0;points=[];" vertex="1" connectable="0" parent="jQbY-VFzGhRPJN1Kly41-81">
          <mxGeometry x="-0.3567" y="2" relative="1" as="geometry">
            <mxPoint x="-2" y="-2" as="offset" />
          </mxGeometry>
        </mxCell>
        <mxCell id="jQbY-VFzGhRPJN1Kly41-86" value="" style="edgeStyle=none;html=1;labelBackgroundColor=none;endArrow=none;strokeWidth=5;fontFamily=Verdana;fontSize=28;fontColor=#0066CC;rounded=0;strokeColor=#6881B3;entryX=0;entryY=0.5;entryDx=0;entryDy=0;entryPerimeter=0;exitX=1;exitY=0.5;exitDx=0;exitDy=0;exitPerimeter=0;" edge="1" parent="1" source="jQbY-VFzGhRPJN1Kly41-97" target="jQbY-VFzGhRPJN1Kly41-35">
          <mxGeometry relative="1" as="geometry">
            <mxPoint x="220" y="558" as="sourcePoint" />
            <mxPoint x="410" y="660" as="targetPoint" />
          </mxGeometry>
        </mxCell>
        <mxCell id="jQbY-VFzGhRPJN1Kly41-87" value="192.168.2.0/24&lt;div&gt;10G网络&lt;/div&gt;" style="edgeLabel;html=1;align=center;verticalAlign=middle;resizable=0;points=[];" vertex="1" connectable="0" parent="jQbY-VFzGhRPJN1Kly41-86">
          <mxGeometry x="-0.3567" y="2" relative="1" as="geometry">
            <mxPoint x="-2" y="-2" as="offset" />
          </mxGeometry>
        </mxCell>
        <mxCell id="jQbY-VFzGhRPJN1Kly41-88" value="" style="edgeStyle=none;html=1;labelBackgroundColor=none;endArrow=none;strokeWidth=10;fontFamily=Verdana;fontSize=28;fontColor=#0066CC;rounded=0;strokeColor=#6881B3;exitX=0.5;exitY=0;exitDx=0;exitDy=0;exitPerimeter=0;entryX=0.5;entryY=1;entryDx=0;entryDy=0;entryPerimeter=0;" edge="1" parent="1" source="jQbY-VFzGhRPJN1Kly41-79" target="jQbY-VFzGhRPJN1Kly41-78">
          <mxGeometry relative="1" as="geometry">
            <mxPoint x="-1570" y="568" as="sourcePoint" />
            <mxPoint x="-671" y="569" as="targetPoint" />
          </mxGeometry>
        </mxCell>
        <mxCell id="jQbY-VFzGhRPJN1Kly41-90" value="" style="edgeStyle=none;html=1;labelBackgroundColor=none;endArrow=none;strokeWidth=3;fontFamily=Verdana;fontSize=28;fontColor=#0066CC;rounded=0;strokeColor=#6881B3;exitX=0.5;exitY=1;exitDx=0;exitDy=0;exitPerimeter=0;entryX=0.5;entryY=0;entryDx=0;entryDy=0;entryPerimeter=0;" edge="1" parent="1" source="jQbY-VFzGhRPJN1Kly41-21" target="jQbY-VFzGhRPJN1Kly41-78">
          <mxGeometry relative="1" as="geometry">
            <mxPoint x="-1570" y="568" as="sourcePoint" />
            <mxPoint x="-671" y="569" as="targetPoint" />
          </mxGeometry>
        </mxCell>
        <mxCell id="jQbY-VFzGhRPJN1Kly41-94" value="路由或三层交换机" style="fontColor=#0066CC;verticalAlign=top;verticalLabelPosition=bottom;labelPosition=center;align=center;html=1;outlineConnect=0;fillColor=#CCCCCC;strokeColor=#6881B3;gradientColor=none;gradientDirection=north;strokeWidth=2;shape=mxgraph.networks.router;" vertex="1" parent="1">
          <mxGeometry x="-1380" y="544" width="100" height="30" as="geometry" />
        </mxCell>
        <mxCell id="jQbY-VFzGhRPJN1Kly41-95" value="" style="edgeStyle=none;html=1;labelBackgroundColor=none;endArrow=none;strokeWidth=5;fontFamily=Verdana;fontSize=28;fontColor=#0066CC;rounded=0;strokeColor=#6881B3;exitX=1;exitY=0.5;exitDx=0;exitDy=0;exitPerimeter=0;entryX=0;entryY=0.5;entryDx=0;entryDy=0;entryPerimeter=0;" edge="1" parent="1" source="jQbY-VFzGhRPJN1Kly41-94" target="jQbY-VFzGhRPJN1Kly41-79">
          <mxGeometry relative="1" as="geometry">
            <mxPoint x="-1160" y="574" as="sourcePoint" />
            <mxPoint x="-960" y="575" as="targetPoint" />
          </mxGeometry>
        </mxCell>
        <mxCell id="jQbY-VFzGhRPJN1Kly41-97" value="路由或三层交换机" style="fontColor=#0066CC;verticalAlign=top;verticalLabelPosition=bottom;labelPosition=center;align=center;html=1;outlineConnect=0;fillColor=#CCCCCC;strokeColor=#6881B3;gradientColor=none;gradientDirection=north;strokeWidth=2;shape=mxgraph.networks.router;" vertex="1" parent="1">
          <mxGeometry x="100" y="543" width="100" height="30" as="geometry" />
        </mxCell>
        <mxCell id="jQbY-VFzGhRPJN1Kly41-104" value="" style="edgeStyle=none;html=1;labelBackgroundColor=none;endArrow=none;strokeWidth=5;fontFamily=Verdana;fontSize=28;fontColor=#0066CC;rounded=0;strokeColor=#6881B3;exitX=1;exitY=0.5;exitDx=0;exitDy=0;exitPerimeter=0;entryX=0;entryY=0.5;entryDx=0;entryDy=0;entryPerimeter=0;" edge="1" parent="1" source="jQbY-VFzGhRPJN1Kly41-79" target="jQbY-VFzGhRPJN1Kly41-97">
          <mxGeometry relative="1" as="geometry">
            <mxPoint x="-591" y="573" as="sourcePoint" />
            <mxPoint x="8" y="573" as="targetPoint" />
          </mxGeometry>
        </mxCell>
        <mxCell id="jQbY-VFzGhRPJN1Kly41-105" value="" style="fontColor=#0066CC;verticalAlign=top;verticalLabelPosition=bottom;labelPosition=center;align=center;html=1;outlineConnect=0;fillColor=#CCCCCC;strokeColor=#6881B3;gradientColor=none;gradientDirection=north;strokeWidth=2;shape=mxgraph.networks.laptop;" vertex="1" parent="1">
          <mxGeometry x="-240" y="-550" width="100" height="55" as="geometry" />
        </mxCell>
        <mxCell id="jQbY-VFzGhRPJN1Kly41-106" value="" style="fontColor=#0066CC;verticalAlign=top;verticalLabelPosition=bottom;labelPosition=center;align=center;html=1;outlineConnect=0;fillColor=#CCCCCC;strokeColor=#6881B3;gradientColor=none;gradientDirection=north;strokeWidth=2;shape=mxgraph.networks.tablet;" vertex="1" parent="1">
          <mxGeometry x="-490" y="-650" width="100" height="70" as="geometry" />
        </mxCell>
        <mxCell id="jQbY-VFzGhRPJN1Kly41-107" value="" style="fontColor=#0066CC;verticalAlign=top;verticalLabelPosition=bottom;labelPosition=center;align=center;html=1;outlineConnect=0;fillColor=#CCCCCC;strokeColor=#6881B3;gradientColor=none;gradientDirection=north;strokeWidth=2;shape=mxgraph.networks.terminal;" vertex="1" parent="1">
          <mxGeometry x="-771" y="-680" width="80" height="65" as="geometry" />
        </mxCell>
        <mxCell id="jQbY-VFzGhRPJN1Kly41-108" value="" style="fontColor=#0066CC;verticalAlign=top;verticalLabelPosition=bottom;labelPosition=center;align=center;html=1;outlineConnect=0;fillColor=#CCCCCC;strokeColor=#6881B3;gradientColor=none;gradientDirection=north;strokeWidth=2;shape=mxgraph.networks.pc;" vertex="1" parent="1">
          <mxGeometry x="-986" y="-615" width="100" height="70" as="geometry" />
        </mxCell>
        <mxCell id="jQbY-VFzGhRPJN1Kly41-111" value="" style="sketch=0;pointerEvents=1;shadow=0;dashed=0;html=1;strokeColor=none;fillColor=#505050;labelPosition=center;verticalLabelPosition=bottom;verticalAlign=top;outlineConnect=0;align=center;shape=mxgraph.office.devices.cell_phone_iphone_proportional;" vertex="1" parent="1">
          <mxGeometry x="-1150" y="-440" width="50" height="80" as="geometry" />
        </mxCell>
        <mxCell id="jQbY-VFzGhRPJN1Kly41-113" style="edgeStyle=none;html=1;labelBackgroundColor=none;endArrow=none;strokeWidth=2;fontFamily=Verdana;fontSize=28;fontColor=#0066CC;rounded=0;strokeColor=#6881B3;exitX=0.06;exitY=0.5;exitDx=0;exitDy=0;exitPerimeter=0;" edge="1" parent="1" source="jQbY-VFzGhRPJN1Kly41-21" target="jQbY-VFzGhRPJN1Kly41-111">
          <mxGeometry relative="1" as="geometry">
            <mxPoint x="-1070" y="-21" as="sourcePoint" />
            <mxPoint x="-904" y="-370" as="targetPoint" />
          </mxGeometry>
        </mxCell>
        <mxCell id="jQbY-VFzGhRPJN1Kly41-114" style="edgeStyle=none;html=1;labelBackgroundColor=none;endArrow=none;strokeWidth=2;fontFamily=Verdana;fontSize=28;fontColor=#0066CC;rounded=0;strokeColor=#6881B3;exitX=0.26;exitY=0.22;exitDx=0;exitDy=0;exitPerimeter=0;" edge="1" parent="1" source="jQbY-VFzGhRPJN1Kly41-21" target="jQbY-VFzGhRPJN1Kly41-108">
          <mxGeometry relative="1" as="geometry">
            <mxPoint x="-778" y="-167" as="sourcePoint" />
            <mxPoint x="-1090" y="-373" as="targetPoint" />
          </mxGeometry>
        </mxCell>
        <mxCell id="jQbY-VFzGhRPJN1Kly41-115" style="edgeStyle=none;html=1;labelBackgroundColor=none;endArrow=none;strokeWidth=2;fontFamily=Verdana;fontSize=28;fontColor=#0066CC;rounded=0;strokeColor=#6881B3;exitX=0.5;exitY=0.08;exitDx=0;exitDy=0;exitPerimeter=0;entryX=0.5;entryY=1;entryDx=0;entryDy=0;entryPerimeter=0;" edge="1" parent="1" source="jQbY-VFzGhRPJN1Kly41-21" target="jQbY-VFzGhRPJN1Kly41-107">
          <mxGeometry relative="1" as="geometry">
            <mxPoint x="-704" y="-225" as="sourcePoint" />
            <mxPoint x="-904" y="-535" as="targetPoint" />
          </mxGeometry>
        </mxCell>
        <mxCell id="jQbY-VFzGhRPJN1Kly41-116" style="edgeStyle=none;html=1;labelBackgroundColor=none;endArrow=none;strokeWidth=2;fontFamily=Verdana;fontSize=28;fontColor=#0066CC;rounded=0;strokeColor=#6881B3;exitX=0.7;exitY=0.07;exitDx=0;exitDy=0;exitPerimeter=0;entryX=0.5;entryY=1;entryDx=0;entryDy=0;entryPerimeter=0;" edge="1" parent="1" source="jQbY-VFzGhRPJN1Kly41-21" target="jQbY-VFzGhRPJN1Kly41-106">
          <mxGeometry relative="1" as="geometry">
            <mxPoint x="-694" y="-215" as="sourcePoint" />
            <mxPoint x="-894" y="-525" as="targetPoint" />
          </mxGeometry>
        </mxCell>
        <mxCell id="jQbY-VFzGhRPJN1Kly41-117" style="edgeStyle=none;html=1;labelBackgroundColor=none;endArrow=none;strokeWidth=2;fontFamily=Verdana;fontSize=28;fontColor=#0066CC;rounded=0;strokeColor=#6881B3;exitX=0.91;exitY=0.5;exitDx=0;exitDy=0;exitPerimeter=0;entryX=0.5;entryY=1;entryDx=0;entryDy=0;entryPerimeter=0;" edge="1" parent="1" source="jQbY-VFzGhRPJN1Kly41-21" target="jQbY-VFzGhRPJN1Kly41-105">
          <mxGeometry relative="1" as="geometry">
            <mxPoint x="-170" y="-190" as="sourcePoint" />
            <mxPoint x="-370" y="-500" as="targetPoint" />
          </mxGeometry>
        </mxCell>
      </root>
    </mxGraphModel>
  </diagram>
</mxfile>
